<svg width="104" height="45" viewBox="0 0 104 45" fill="none" xmlns="http://www.w3.org/2000/svg">
<path d="M0 0H13.0814V45H0V0ZM15.8285 34.9927H18.5102C19.7311 34.9927 20.6468 34.9709 21.2573 34.9273C21.9113 34.8401 22.391 34.6657 22.6962 34.4041C23.0015 34.1424 23.1977 33.7718 23.2849 33.2922C23.4157 32.8125 23.4811 32.1148 23.4811 31.1991C23.4811 30.2398 23.4157 29.5203 23.2849 29.0407C23.1977 28.561 23.0015 28.1904 22.6962 27.9288C22.173 27.4927 20.7776 27.2747 18.5102 27.2747H15.8285V17.2674H18.1177C19.3387 17.2674 20.2544 17.2456 20.8648 17.202C21.5189 17.1148 21.9986 16.9404 22.3038 16.6788C22.609 16.4172 22.8052 16.0683 22.8924 15.6323C23.0233 15.1526 23.0887 14.4985 23.0887 13.6701C23.0887 12.798 23.0233 12.1439 22.8924 11.7078C22.8052 11.2282 22.609 10.8576 22.3038 10.5959C21.9986 10.3343 21.5189 10.1817 20.8648 10.1381C20.2544 10.0509 19.3387 10.0073 18.1177 10.0073H15.8285V0H23.2849C28.5739 0 32.2671 1.37355 34.3644 4.12064L28.6483 21.9113L21.2573 45H15.8285V34.9927Z" fill="#FF9900"/>
<path d="M54.2739 1.96221V0H66.3088L85.146 40.0291L82.9876 45H74.4847L54.2739 1.96221ZM91.2289 26.0974H90.9672L86.585 36.6933L80.96 24.6584L91.2289 0H103.656V45H91.2289V26.0974ZM54.2739 8.4375L66.3088 34.077V45H65.9393L54.2739 8.4375Z" fill="#FF9900"/>
<path d="M35.6007 0H36.7127L41.8798 17.9215L34.358 45H21.2766L35.6007 0ZM50.3173 37.0204H39.3943L42.1414 26.9477H47.374L39.656 0H51.6254L65.9496 45H52.6066L50.3173 37.0204Z" fill="#191A19"/>
</svg>
