<svg width="50" height="50" viewBox="0 0 50 50" fill="none" xmlns="http://www.w3.org/2000/svg">
<rect width="50" height="50" rx="11" fill="#FF9900"/>
<g filter="url(#filter0_i_406_68)">
<path d="M14 12.4565C14 11.9043 14.4477 11.4565 15 11.4565H21.3009C21.8532 11.4565 22.3009 11.9043 22.3009 12.4565V36.8534C22.3009 37.4057 21.8532 37.8534 21.3009 37.8534H15C14.4477 37.8534 14 37.4057 14 36.8534V12.4565ZM24.2212 32.9832C24.2212 32.4309 24.6689 31.9832 25.2212 31.9832H26.0957C26.9491 31.9832 27.5892 31.9704 28.0159 31.9448C28.4731 31.8937 28.8084 31.7914 29.0218 31.6379C29.2351 31.4844 29.3723 31.267 29.4333 30.9856C29.5247 30.7043 29.5704 30.295 29.5704 29.7579C29.5704 29.1952 29.5247 28.7731 29.4333 28.4917C29.3723 28.2104 29.2351 27.993 29.0218 27.8395C28.656 27.5837 27.6807 27.4558 26.0957 27.4558H25.2212C24.6689 27.4558 24.2212 27.0081 24.2212 26.4558V22.5856C24.2212 22.0333 24.6689 21.5856 25.2212 21.5856H25.8214C26.6748 21.5856 27.3149 21.5728 27.7416 21.5472C28.1988 21.4961 28.5341 21.3937 28.7475 21.2403C28.9608 21.0868 29.098 20.8822 29.1589 20.6264C29.2504 20.345 29.2961 19.9614 29.2961 19.4754C29.2961 18.9638 29.2504 18.5801 29.1589 18.3243C29.098 18.043 28.9608 17.8256 28.7475 17.6721C28.5341 17.5186 28.1988 17.4291 27.7416 17.4035C27.3149 17.3524 26.6748 17.3268 25.8214 17.3268H25.2212C24.6689 17.3268 24.2212 16.8791 24.2212 16.3268V12.4565C24.2212 11.9043 24.6689 11.4565 25.2212 11.4565H29.4333C32.8265 11.4565 33.8596 12.1353 35.14 13.4927C35.3629 13.729 35.45 14.0623 35.3798 14.3795L33.1982 24.238C33.1876 24.2857 33.1736 24.3326 33.1561 24.3783L28.2614 37.2098C28.1136 37.5974 27.7419 37.8534 27.3271 37.8534H25.2212C24.6689 37.8534 24.2212 37.4057 24.2212 36.8534V32.9832Z" fill="white"/>
<path d="M26.0957 17.3269H25.2212C24.6689 17.3269 24.2212 16.8791 24.2212 16.3269V12.4566C24.2212 11.9043 24.6689 11.4566 25.2212 11.4566H27.863C27.9644 11.4566 28.0652 11.472 28.1619 11.5023L34.7907 13.5787C35.2079 13.7094 35.4918 14.0959 35.4918 14.533V35.0495C35.4918 35.2984 35.3996 35.5391 35.23 35.7213C33.9065 37.1428 32.9056 37.8535 29.4333 37.8535H25.2212C24.6689 37.8535 24.2212 37.4058 24.2212 36.8535V32.9833C24.2212 32.431 24.6689 31.9833 25.2212 31.9833H25.8214C26.6748 31.9833 27.3149 31.9577 27.7416 31.9065C28.1988 31.881 28.5341 31.7914 28.7475 31.638C28.9608 31.4845 29.098 31.2671 29.159 30.9857C29.2504 30.7299 29.2961 30.3463 29.2961 29.8347C29.2961 29.3487 29.2504 28.965 29.159 28.6837C29.098 28.4279 28.9608 28.2233 28.7475 28.0698C28.5341 27.9163 28.1988 27.814 27.7416 27.7628C27.3149 27.7373 26.6748 27.7245 25.8214 27.7245H25.2212C24.6689 27.7245 24.2212 27.2768 24.2212 26.7245V22.8542C24.2212 22.302 24.6689 21.8542 25.2212 21.8542H26.0957C27.6807 21.8542 28.656 21.7263 29.0218 21.4706C29.2352 21.3171 29.3723 21.0997 29.4333 20.8183C29.5247 20.537 29.5704 20.1149 29.5704 19.5522C29.5704 19.015 29.5247 18.6058 29.4333 18.3244C29.3723 18.0431 29.2352 17.8256 29.0218 17.6722C28.8084 17.5187 28.4732 17.4164 28.016 17.3652C27.5892 17.3396 26.9492 17.3269 26.0957 17.3269Z" fill="white"/>
</g>
<defs>
<filter id="filter0_i_406_68" x="14" y="11.4565" width="21.4917" height="28.397" filterUnits="userSpaceOnUse" color-interpolation-filters="sRGB">
<feFlood flood-opacity="0" result="BackgroundImageFix"/>
<feBlend mode="normal" in="SourceGraphic" in2="BackgroundImageFix" result="shape"/>
<feColorMatrix in="SourceAlpha" type="matrix" values="0 0 0 0 0 0 0 0 0 0 0 0 0 0 0 0 0 0 127 0" result="hardAlpha"/>
<feOffset dy="4"/>
<feGaussianBlur stdDeviation="1"/>
<feComposite in2="hardAlpha" operator="arithmetic" k2="-1" k3="1"/>
<feColorMatrix type="matrix" values="0 0 0 0 0 0 0 0 0 0 0 0 0 0 0 0 0 0 0.07 0"/>
<feBlend mode="normal" in2="shape" result="effect1_innerShadow_406_68"/>
</filter>
</defs>
</svg>
